<svg xmlns="http://www.w3.org/2000/svg" width="3989" height="5000" viewBox="0 0 3989 5000" version="1.1"><path d="M 0 577 L 0 1154.001 1994.750 1153.750 L 3989.500 1153.500 3989.751 576.750 L 3990.002 0 3797.001 0 L 3604 0 3604 457 L 3604 914 3676.500 914 L 3749 914 3749 529.500 L 3749 145 3796.500 145 L 3844 145 3844 577 L 3844 1009 1994.500 1009 L 145 1009 145 504.500 L 145 0 72.500 0 L 0 0 0 577 M 240 457 L 240 914 312.500 914 L 385 914 385 457 L 385 0 312.500 0 L 240 0 240 457 M 480 457 L 480 914 552.500 914 L 625 914 625 529.500 L 625 145 673 145 L 721 145 721 529.500 L 721 914 793 914 L 865 914 865 457 L 865 0 672.500 0 L 480 0 480 457 M 961 457 L 961 914 1153.500 914 L 1346 914 1346 457 L 1346 0 1153.500 0 L 961 0 961 457 M 1441 457 L 1441 914 1634 914 L 1827 914 1827 841.500 L 1827 769 1706.500 769 L 1586 769 1586 715.140 L 1586 661.280 1715.250 587.471 C 1786.338 546.877, 1845.257 513.155, 1846.183 512.534 C 1847.674 511.534, 1843.752 504.216, 1811.847 448.453 C 1792.037 413.829, 1775.724 385.394, 1775.596 385.265 C 1775.468 385.136, 1733.319 409.147, 1681.932 438.624 C 1630.544 468.101, 1587.938 492.443, 1587.250 492.716 C 1586.253 493.113, 1586 457.992, 1586 319.111 L 1586 145.008 1706.250 144.754 L 1826.500 144.500 1826.757 72.250 L 1827.013 0 1634.007 0 L 1441 0 1441 457 M 1922 457 L 1922 914 1994.500 914 L 2067 914 2067 529.500 L 2067 145 2114.500 145 L 2162 145 2162 529.500 L 2162 914 2234.500 914 L 2307 914 2307 529.500 L 2307 145 2355 145 L 2403 145 2403 529.500 L 2403 914 2475.500 914 L 2548 914 2548 457 L 2548 0 2235 0 L 1922 0 1922 457 M 2643 457 L 2643 914 2715.500 914 L 2788 914 2788 766.074 L 2788 618.148 2835.250 591.142 L 2882.500 564.136 2882.753 739.068 L 2883.006 914 2955.503 914 L 3028 914 3028 457 L 3028 0 2835.500 0 L 2643 0 2643 457 M 3124 457 L 3124 914 3196 914 L 3268 914 3268 529.500 L 3268 145 3316 145 L 3364 145 3364 529.500 L 3364 914 3436.500 914 L 3509 914 3509 457 L 3509 0 3316.500 0 L 3124 0 3124 457 M 0.497 577.500 C 0.497 894.850, 0.611 1024.526, 0.750 865.668 C 0.889 706.810, 0.889 447.160, 0.750 288.668 C 0.611 130.176, 0.497 260.150, 0.497 577.500 M 1106 457 L 1106 769 1153.500 769 L 1201 769 1201 457 L 1201 145 1153.500 145 L 1106 145 1106 457 M 2788 296 C 2788 379.050, 2788.266 447, 2788.591 447 C 2788.917 447, 2810.292 435.258, 2836.091 420.907 L 2883 394.814 2883 269.907 L 2883 145 2835.500 145 L 2788 145 2788 296 M 744.973 1491.250 C 744.958 1491.388, 744.845 2280.913, 744.723 3245.750 L 744.500 5000 1994.250 5000 L 3244 5000 3244 3245.500 L 3244 1491 1994.500 1491 C 1307.275 1491, 744.988 1491.112, 744.973 1491.250 M 938 3245.500 L 938 4807 1994.500 4807 L 3051 4807 3051 4615.501 L 3051 4424.001 2186.250 4423.751 L 1321.500 4423.500 1321.250 3053.750 L 1320.999 1684 1129.500 1684 L 938 1684 938 3245.500 M 1514 2957.500 L 1514 4231 1706 4231 L 1898 4231 1898 3149.500 L 1898 2068 1994.500 2068 L 2091 2068 2091 3149.500 L 2091 4231 2283 4231 L 2475 4231 2475 3149.500 L 2475 2068 2571.500 2068 L 2668 2068 2668 3149.500 L 2668 4231 2859.500 4231 L 3051 4231 3051 2957.500 L 3051 1684 2282.500 1684 L 1514 1684 1514 2957.500" stroke="none" fill="#000000" fill-rule="evenodd"/></svg>